<?xml version="1.0" encoding="UTF-8" standalone="no"?>
<svg
   fill="#ffffff"
   viewBox="0 0 255.14729 449.12714"
   version="1.1"
   id="svg1"
   sodipodi:docname="ellipsis_vertical.svg"
   width="255.14729"
   height="449.12714"
   inkscape:version="1.4.2 (2aeb623e1d, 2025-05-12)"
   xmlns:inkscape="http://www.inkscape.org/namespaces/inkscape"
   xmlns:sodipodi="http://sodipodi.sourceforge.net/DTD/sodipodi-0.dtd"
   xmlns="http://www.w3.org/2000/svg"
   xmlns:svg="http://www.w3.org/2000/svg">
  <defs
     id="defs1" />
  <sodipodi:namedview
     id="namedview1"
     pagecolor="#ffffff"
     bordercolor="#000000"
     borderopacity="0.25"
     inkscape:showpageshadow="2"
     inkscape:pageopacity="0.0"
     inkscape:pagecheckerboard="0"
     inkscape:deskcolor="#d1d1d1"
     inkscape:zoom="0.88719804"
     inkscape:cx="353.35966"
     inkscape:cy="254.17099"
     inkscape:window-width="1854"
     inkscape:window-height="1011"
     inkscape:window-x="66"
     inkscape:window-y="32"
     inkscape:window-maximized="1"
     inkscape:current-layer="svg1">
    <inkscape:page
       x="0"
       y="0"
       width="255.14729"
       height="449.12714"
       id="page1"
       margin="0"
       bleed="0" />
  </sodipodi:namedview>
  <path
     d="M 127.57365,112 C 96.673648,112 71.573648,86.9 71.573648,56 c 0,-30.9 25.1,-56 56.000002,-56 30.9,0 56,25.1 56,56 0,30.9 -25.1,56 -56,56 z m 0,224 c 30.9,0 56,25.1 56,56 0,30.9 -25.1,56 -56,56 -30.900002,0 -56.000002,-25.1 -56.000002,-56 0,-30.9 25.1,-56 56.000002,-56 z m 56,-112 c 0,30.9 -25.1,56 -56,56 -30.900002,0 -56.000002,-25.1 -56.000002,-56 0,-30.9 25.1,-56 56.000002,-56 30.9,0 56,25.1 56,56 z"
     id="path1" />
</svg>
