<?xml version="1.0" encoding="UTF-8"?>
<svg width="50px" height="50px" viewBox="0 0 50 50" version="1.1" xmlns="http://www.w3.org/2000/svg" xmlns:xlink="http://www.w3.org/1999/xlink">
    <g stroke="none" stroke-width="1" fill="none" fill-rule="evenodd">
        <g transform="translate(-924, -251)">
            <g transform="translate(29, 191)">
                <g transform="translate(156, 0)">
                    <g transform="translate(739, 60)">
                        <path d="M24.5634065,0.00386262076 C10.7432214,0.25544825 -0.254664645,11.6335502 0.00448746975,25.4556268 C0.235265265,39.2417627 11.6152588,50.2301906 25.4335522,49.9994129 C39.2442791,49.7629602 50.2327071,38.3735085 49.9962545,24.5684565 C49.7465605,10.7596212 38.376025,-0.236373281 24.5634065,0.00386262076" id="Fill-155" fill="#F5333F"></path>
                        <path d="M37.0999373,36.6564839 C30.6740998,43.3055327 19.944824,43.5192859 13.2976668,37.1180395 C10.1367677,34.0309136 8.2375799,29.7199087 8.15245694,25.2991898 L16.5417973,25.1478601 C16.5909794,27.3780815 17.5159822,29.5610125 19.1200771,31.0875509 C22.4455473,34.3203316 27.8593674,34.2257505 31.1016062,30.887039 C34.3306037,27.5540023 34.2265646,22.1288325 30.8992027,18.9168596 C29.2799749,17.3468139 27.0592116,16.482343 24.8403398,16.5163922 L24.7079263,8.16110103 C29.1267536,8.04192889 33.5020736,9.82572775 36.6913471,12.8825877 C43.3536372,19.3103168 43.5276664,30.0377011 37.0999373,36.6564839" id="Fill-157" fill="#FFFFFF"></path>
                    </g>
                </g>
            </g>
        </g>
    </g>
</svg>