<?xml version="1.0" encoding="UTF-8"?>
<svg xmlns="http://www.w3.org/2000/svg" viewBox="0 0 75.1329956 74.9380493">
  <defs>
    <style>
      .cls-1 {
      fill: #606063;
      }

      .cls-2 {
      fill: #fff;
      fill-rule: evenodd;
      }
    </style>
  </defs>
  <g>
    <g>
      <path class="cls-1" d="M0,37.4689941C0,16.7680054,16.8119507,0,37.565979,0c20.7550049,0,37.5670166,16.7680054,37.5670166,37.4689941,0,20.7010498-16.8120117,37.4690552-37.5670166,37.4690552C16.8119507,74.9380493,0,58.1700439,0,37.4689941"/>
      <path class="cls-2" d="M56.8300781,64.7619629l-8.9940186-13.7950439c3.1630249-.6609497,5.5320435-3.4199829,5.5320435-6.7409668V19.9239502c0-3.7999878-3.1300049-6.8889771-6.9730225-6.8889771H28.5230713c-3.8599854,0-6.973999,3.0889893-6.973999,6.8889771v24.302002c0,3.2550049,2.3029785,5.9970093,5.3829956,6.7080078l-8.6129761,13.8439941h4.7039795l6.2449951-10.177002h16.5640259l6.0949707,10.1610107h4.9030151ZM29.5830688,19.2959595h15.6190186c2.3690186,0,4.289978,1.8999634,4.289978,4.2290039v4.2130127c0,2.3459473-1.9209595,4.2299805-4.289978,4.2299805h-15.6190186c-2.3690186,0-4.289978-1.9000244-4.289978-4.2299805v-4.2130127c0-2.3450317,1.9209595-4.2290039,4.289978-4.2290039m13.5820312,23.8729858c0-1.7839966,1.4569702-3.2219849,3.2630005-3.2219849,1.8049927,0,3.2789917,1.4379883,3.2789917,3.2219849s-1.4570312,3.2210083-3.2789917,3.2210083c-1.8220215,0-3.2630005-1.4370117-3.2630005-3.2210083m-18.1040039,0c0-1.7839966,1.4569702-3.2219849,3.2789917-3.2219849,1.8219604,0,3.2630005,1.4379883,3.2630005,3.2219849s-1.4570312,3.2210083-3.2630005,3.2210083c-1.8049927,0-3.2789917-1.4370117-3.2789917-3.2210083m7.3709717-33.0419922c0-1.2059937,.992981-2.1810303,2.2030029-2.1810303,1.2089844,0,2.2020264,.9750366,2.2020264,2.1810303s-.993042,2.1809692-2.2020264,2.1809692c-1.210022,0-2.2030029-.9749756-2.2030029-2.1809692m5.7310181,0c0-1.2059937,.992981-2.1810303,2.2030029-2.1810303,1.2089844,0,2.2019653,.9750366,2.2019653,2.1810303s-.992981,2.1809692-2.2019653,2.1809692c-1.210022,0-2.2030029-.9749756-2.2030029-2.1809692m-4.190979,3.9649658h7.0889893c.5960083,0,1.0769653,.4790039,1.0769653,1.0570068v2.1650391c0,.5780029-.480957,1.0570068-1.0769653,1.0570068h-7.0889893c-.5960083,0-1.0770264-.4790039-1.0770264-1.0570068v-2.1650391c0-.5780029,.4810181-1.0570068,1.0770264-1.0570068"/>
    </g>
  </g>
</svg>