<?xml version="1.0" encoding="UTF-8"?>
<svg width="70px" height="70px" viewBox="0 0 70 70" version="1.1" xmlns="http://www.w3.org/2000/svg" xmlns:xlink="http://www.w3.org/1999/xlink">
    <g id="Page-1" stroke="none" stroke-width="1" fill="none" fill-rule="evenodd">
        <g transform="translate(-1026, -930)">
            <g id="Group-3" transform="translate(29, 202)">
                <g id="Group-2" transform="translate(156, 646)">
                    <g id="Group" transform="translate(841, 82)">
                        <path d="M0,35.0026274 C0,15.6647399 15.6647399,0 35,0 C54.3378875,0 70,15.6647399 70,35.0026274 C70,54.340515 54.3352601,70.0026274 35,70.0026274 C15.6621125,70.0052549 0,54.3247504 0,35.0026274" id="Fill-540" fill="#676467"></path>
                        <path d="M34.9844982,57.9971098 L26.7737782,60.6665791 L26.7737782,55.2961114 L31.821072,50.897793 L31.821072,40.1568576 L8.39490279,46.8252759 L8.39490279,39.9860746 L31.991855,25.989753 L31.991855,9.24513925 C31.991855,9.24513925 31.6660536,5.83473463 34.9687336,5.83473463 C38.103258,5.83473463 38.0086705,9.24513925 38.0086705,9.24513925 L38.0086705,26.0055176 L61.6056227,40.0018392 L61.6056227,46.838413 L38.1794535,40.1726222 L38.1794535,50.9135575 L43.2241198,55.311876 L43.2241198,60.6823437 L35.0002627,58.0128744 L34.9844982,57.9971098 Z" id="Fill-541" fill="#FFFFFF"></path>
                    </g>
                </g>
            </g>
        </g>
    </g>
</svg>