<?xml version="1.0" encoding="UTF-8"?>
<svg width="70px" height="70px" viewBox="0 0 70 70" version="1.1" xmlns="http://www.w3.org/2000/svg" xmlns:xlink="http://www.w3.org/1999/xlink">
    <g stroke="none" stroke-width="1" fill="none" fill-rule="evenodd">
        <g transform="translate(-1126, -930)">
            <g id="Group-3" transform="translate(29, 202)">
                <g id="Group-2" transform="translate(156, 646)">
                    <g id="Group" transform="translate(941, 82)">
                        <path d="M35.0073724,0 C54.3230922,0 70,15.6810281 70,34.9994733 C70,54.3189719 54.3230922,70 35.0073724,70 C15.6916526,70 0,54.3189719 0,34.9994733 C0,15.6810281 15.6916526,0 35.0073724,0" id="Fill-3387" fill="#676467"></path>
                        <path d="M49.8477221,50.8469399 L49.8477221,53.3445697 C49.8477221,54.7603497 48.7071046,55.9001369 47.2926547,55.9001369 L47.0620035,55.9001369 C45.6465004,55.9001369 44.5058829,54.7603497 44.5058829,53.3445697 L44.5058829,50.8469399 L25.7831157,50.8469399 L25.7831157,53.3445697 C25.7831157,54.7603497 24.6424982,55.9001369 23.2280483,55.9001369 L22.9963439,55.9001369 C21.581894,55.9001369 20.4412765,54.7603497 20.4412765,53.3445697 L20.4412765,50.8469399 L17.337491,50.8469399 L17.337491,33.6795534 L19.0847526,20.0347625 C19.0847526,20.0347625 19.2869674,17.4496998 21.4228605,16.69862 C21.5671491,16.4394817 26.4181963,14.0566733 34.97862,14.0998631 C43.5390437,14.0566733 48.4332721,16.4394817 48.5775608,16.69862 C50.7134539,17.4496998 50.9156686,20.0347625 50.9156686,20.0347625 L52.6629303,33.6795534 L52.6629303,50.8469399 L49.8477221,50.8469399 Z M19.8493771,42.6746023 C19.8493771,41.3610028 20.9173237,40.3065417 22.2169746,40.3065417 C23.5303172,40.3065417 24.5993169,41.3610028 24.5993169,42.6746023 C24.5993169,43.9882018 23.5303172,45.0574107 22.2169746,45.0574107 C20.9173237,45.0574107 19.8493771,43.9882018 19.8493771,42.6746023 L19.8493771,42.6746023 Z M28.0632974,17.2474455 L42.1245938,17.2474455 C42.9323995,17.2474455 43.582225,17.8973981 43.582225,18.7064153 C43.582225,19.6302539 42.9323995,20.2802065 42.1245938,20.2802065 L28.0632974,20.2802065 C27.2554917,20.2802065 26.6056662,19.6302539 26.6056662,18.8212367 C26.6056662,17.8973981 27.2554917,17.2474455 28.0632974,17.2474455 L28.0632974,17.2474455 Z M23.7620215,21.5790583 L46.3689968,21.5790583 C47.5812319,21.5790583 48.562816,22.5608343 48.562816,23.7743601 L49.7466147,31.9319499 C49.7466147,33.1444222 48.7797755,34.1272517 47.5664871,34.1272517 L22.7225114,34.1272517 C21.509223,34.1272517 20.527639,33.1444222 20.527639,31.9319499 L21.5671491,23.7743601 C21.5671491,22.5608343 22.5487331,21.5790583 23.7620215,21.5790583 L23.7620215,21.5790583 Z M45.545393,42.6746023 C45.545393,41.3610028 46.6143928,40.3065417 47.9277353,40.3065417 C49.2273863,40.3065417 50.2953328,41.3610028 50.2953328,42.6746023 C50.2953328,43.9882018 49.2273863,45.0574107 47.9277353,45.0574107 C46.6143928,45.0574107 45.545393,43.9882018 45.545393,42.6746023 L45.545393,42.6746023 Z" id="Fill-3389" fill="#FFFFFF"></path>
                    </g>
                </g>
            </g>
        </g>
    </g>
</svg>