<?xml version="1.0" encoding="UTF-8"?>
<svg id="svg2" xmlns="http://www.w3.org/2000/svg" version="1.1" xmlns:svg="http://www.w3.org/2000/svg" xmlns:xlink="http://www.w3.org/1999/xlink" viewBox="0 0 806.5314575 500">
    <defs>
        <style>
            .st0, .st1 {
            fill: #fff;
            }

            .st1, .st2, .st3 {
            fill-rule: evenodd;
            }

            .st2 {
            fill: #0062ae;
            }

            .st3 {
            fill: #e40520;
            }
        </style>
    </defs>
    <g>
        <path class="st3" d="M402.5193942,491.6157584c-1.5117712,0-3.0180848-.4065955-4.355211-1.2225154L12.4114673,255.6539204c-2.5105226-1.5254154-4.0386668-4.2487867-4.0277515-7.1850066.0109153-2.9334911,1.5499748-5.6514047,4.0659551-7.1604471L398.2023868,9.5817711c1.3262109-.7995469,2.8216091-1.1979559,4.3170074-1.1979559,1.4899406,0,2.9798812.3956802,4.3060921,1.1897694l387.2481142,231.7266955c2.5214379,1.5090424,4.0659551,4.2296848,4.0768704,7.1686336.0109153,2.9389488-1.5226865,5.6705065-4.0386668,7.1931931l-387.2481142,234.7393226c-1.3316685.8104622-2.8379821,1.2143289-4.3442957,1.2143289Z"/>
        <path class="st0" d="M402.5214408,16.765925l387.2440209,231.7275483-387.2440209,234.7406018L16.765996,248.4934732,402.5214408,16.765925M402.5214408,0c-2.9887499,0-5.9768176.7978414-8.6333325,2.3938652L8.1326635,234.1214134C3.1013852,237.1435915.0171263,242.5765193.0000711,248.4455482c-.0170552,5.8691994,3.0365044,11.3195235,8.0500454,14.3705248l385.7554447,234.7406018c2.6769812,1.6285992,5.6964304,2.4433252,8.7158796,2.4433252,3.0105805,0,6.0197966-.8091831,8.6913202-2.4284872l387.2440209-234.7406018c5.0271851-3.0475903,8.09166-8.5061009,8.0746048-14.3853628-.0170552-5.8790914-3.1122294-11.3198646-8.1571519-14.3388022L411.1302139,2.3791977c-2.6503751-1.5861318-5.6295741-2.3791977-8.6087731-2.3791977h0Z"/>
    </g>
    <polygon class="st1" points="401.9290183 109.0839688 170.9224982 247.8704788 401.9290183 388.4367667 633.8301981 247.8704788 401.9290183 109.0839688"/>
    <polygon class="st2" points="219.2655954 324.8810221 219.1904336 174.3103475 588.0228491 174.3103475 588.0228491 324.7283549 219.2655954 324.8810221"/>
</svg>