<?xml version="1.0" encoding="UTF-8" standalone="no"?>
<svg
   height="18"
   viewBox="0 -960 720 720"
   width="18"
   fill="#e3e3e3"
   version="1.1"
   id="svg1"
   sodipodi:docname="neogalleta.svg"
   inkscape:version="1.4.2 (2aeb623e1d, 2025-05-12)"
   xmlns:inkscape="http://www.inkscape.org/namespaces/inkscape"
   xmlns:sodipodi="http://sodipodi.sourceforge.net/DTD/sodipodi-0.dtd"
   xmlns="http://www.w3.org/2000/svg"
   xmlns:svg="http://www.w3.org/2000/svg">
  <defs
     id="defs1" />
  <sodipodi:namedview
     id="namedview1"
     pagecolor="#ffffff"
     bordercolor="#000000"
     borderopacity="0.25"
     inkscape:showpageshadow="2"
     inkscape:pageopacity="0.0"
     inkscape:pagecheckerboard="0"
     inkscape:deskcolor="#d1d1d1"
     inkscape:zoom="11.313709"
     inkscape:cx="0.92807765"
     inkscape:cy="20.727067"
     inkscape:window-width="1854"
     inkscape:window-height="1011"
     inkscape:window-x="66"
     inkscape:window-y="32"
     inkscape:window-maximized="1"
     inkscape:current-layer="svg1" />
  <g
     id="g3"
     style="fill:#000000"
     transform="translate(-120,-120)">
    <path
       d="m 360,-120 c -66.66667,0 -123.33333,-23.33333 -170,-70 -46.66667,-46.66667 -70,-103.33333 -70,-170 v -240 c 0,-66.66667 23.33333,-123.33333 70,-170 46.66667,-46.66667 103.33333,-70 170,-70 h 240 c 66.66667,0 123.33333,23.33333 170,70 46.66667,46.66667 70,103.33333 70,170 v 240 c 0,66.66667 -23.33333,123.33333 -70,170 -46.66667,46.66667 -103.33333,70 -170,70 z m 0,-80 h 240 c 44,0 81.66667,-15.66667 113,-47 31.33333,-31.33333 47,-69 47,-113 v -240 c 0,-44 -15.66667,-81.66667 -47,-113 -31.33333,-31.33333 -69,-47 -113,-47 H 360 c -44,0 -81.66667,15.66667 -113,47 -31.33333,31.33333 -47,69 -47,113 v 240 c 0,44 15.66667,81.66667 47,113 31.33333,31.33333 69,47 113,47 z"
       id="path1"
       sodipodi:nodetypes="ssssssssssssssssssssssssss"
       style="fill:#000000" />
    <g
       id="g2"
       transform="translate(-776.60405,1572.9253)"
       style="fill:#000000">
      <path
         id="path1-5-2"
         d="m 1280.7054,-2297.1733 c -10.6667,0.3333 -20.0469,4.5 -28.0469,12.5 -7.3333,8 -11.1511,17.3802 -11.4844,28.0469 -0.3333,10.6667 3.4844,19.9688 11.4844,27.9688 l 75,75 h -246.9531 c -11.3333,0 -20.849,3.8176 -28.5156,11.4843 -7.6667,7.6667 -11.4844,17.1824 -11.4844,28.5157 0,11.3333 3.8177,20.8489 11.4844,28.5156 7.6666,7.6667 17.1823,11.4844 28.5156,11.4844 h 343.125 1.9531 c 21.2768,-1.0537 37.9828,-18.619 37.9687,-39.9219 0.01,-1.9079 -0.1244,-3.8138 -0.3906,-5.7031 -0.3849,-3.2487 -1.1241,-6.3978 -2.1875,-9.375 -1.6667,-4.6667 -4.5156,-8.9688 -8.5156,-12.9688 l -143.9844,-143.9844 c -8,-8 -17.302,-11.8958 -27.9687,-11.5625 z"
         sodipodi:nodetypes="scsscsssssccccssss"
         style="fill:#000000" />
      <path
         id="path1-5-2-7"
         d="m 1232.5027,-1808.6773 c 10.6667,-0.3333 20.0469,-4.5 28.0469,-12.5 7.3333,-8 11.1511,-17.3802 11.4844,-28.0469 0.3333,-10.6667 -3.4844,-19.9688 -11.4844,-27.9688 l -75,-75 h 246.9531 c 11.3333,0 20.849,-3.8176 28.5156,-11.4843 7.6667,-7.6667 11.4844,-17.1824 11.4844,-28.5157 0,-11.3333 -3.8177,-20.8489 -11.4844,-28.5156 -7.6666,-7.6667 -17.1823,-11.4844 -28.5156,-11.4844 h -343.125 -1.9531 c -21.2768,1.0537 -37.9828,18.619 -37.9687,39.9219 -0.01,1.9079 0.1244,3.8138 0.3906,5.7031 0.3849,3.2487 1.1241,6.3978 2.1875,9.375 1.6667,4.6667 4.5156,8.9688 8.5156,12.9688 l 143.9844,143.9844 c 8,8 17.302,11.8958 27.9687,11.5625 z"
         sodipodi:nodetypes="scsscsssssccccssss"
         style="fill:#000000" />
    </g>
  </g>
</svg>
