<?xml version="1.0" encoding="UTF-8"?>
<svg id="Capa_2" xmlns="http://www.w3.org/2000/svg" version="1.1" viewBox="0 0 57.2270012 32.0120354">
  <!-- Generator: Adobe Illustrator 29.0.0, SVG Export Plug-In . SVG Version: 2.1.0 Build 186)  -->
  <defs>
    <style>
      .st0 {
        fill-rule: evenodd;
      }

      .st0, .st1 {
        fill: #fff;
      }

      .st2 {
        fill: #76777a;
      }
    </style>
  </defs>
  <g>
    <path class="st2" d="M42.5430069.9H14.6829891C7.103003.9.9,7.103003.9,14.6840572v2.6439819c0,7.5800171,6.201996,13.7839966,13.7829891,13.7839966h27.8600178c7.5809937,0,13.7839966-6.2030029,13.7839966-13.7839966v-2.6439819c0-7.5810547-6.2040405-13.7840576-13.7839966-13.7840576"/>
    <path class="st1" d="M42.5429688,32.0128784H14.6831055c-8.0961914,0-14.6831055-6.5878906-14.6831055-14.6845703v-2.644043C0,6.5875854,6.5869141.0001831,14.6831055.0001831h27.8598633C50.6396484.0001831,57.2275391,6.5875854,57.2275391,14.6842651v2.644043c0,8.0966797-6.5878906,14.6845703-14.6845703,14.6845703ZM14.6831055,1.7999878C7.5791016,1.7999878,1.7998047,7.5797729,1.7998047,14.6842651v2.644043c0,7.1044922,5.7792969,12.8837891,12.8833008,12.8837891h27.8598633c7.1044922,0,12.8837891-5.7792969,12.8837891-12.8837891v-2.644043c0-7.1044922-5.7792969-12.8842773-12.8837891-12.8842773H14.6831055Z"/>
  </g>
  <path class="st0" d="M19.6000118,12.4621334l3.5689697-3.5689697c-3.9319763-3.9320068-10.3449707-3.9320068-14.2769775,0s-3.9320068,10.3449707,0,14.2769775,10.3450012,3.9320068,14.2769775,0l-3.6459961-3.6459961c-1.7850037,1.7839966-4.7339783,2.4050293-7.0619812.0770264-1.9660034-1.9660034-1.9660034-5.1730347,0-7.1390381,1.9660034-1.9659424,5.1730042-1.9659424,7.1390076,0"/>
  <rect class="st1" x="21.5556087" y="14.3569088" width="5.0490112" height="3.367981"/>
  <path class="st1" d="M50.7907723,20.2973995c0,.7240601-.0709839,1.4250488-.1879883,2.1490479-.117981.723999-.3519897,1.4019775-.65802,1.9859619-.3289795.5840454-.7749634,1.0740356-1.3389893,1.447998-.5639648.3740234-1.2689819.5610352-2.1380005.5610352-.5880127,0-1.1049805-.1400146-1.5750122-.3970337-.492981-.256958-.8689575-.6539917-1.1269531-1.1919556l-.2120361,1.3789673h-3.2420044V9.5984249h3.5950317v6.4470215c.3049927-.5369873.7039795-.9570312,1.197998-1.2139893.492981-.257019,1.0339966-.3980103,1.6449585-.3980103.8690186,0,1.5500488.1640015,2.0910034.5139771.5170288.3510132.9160156.8179932,1.2220459,1.3790283.2819824.5599976.4689941,1.190979.5869751,1.8919678.0939941.7009888.1409912,1.4020386.1409912,2.0789795M47.0548104,20.2973995c0-.256958,0-.6069946-.0230103-1.0049438-.0240479-.3970337-.0939941-.7940063-.1880493-1.1680298-.117981-.3729858-.2819824-.7000122-.4939575-.9810181-.2109985-.256958-.5170288-.3969727-.9160156-.3969727-.3289795,0-.5880127.0939941-.7990112.257019-.2119751.1640015-.3529663.3739624-.4699707.6309814-.118042.257019-.2120361.5139771-.2579956.8170166-.0469971.3039551-.0710449.5609741-.0710449.8179932v2.3599854c0,.2800293.0240479.5599976.0710449.8640137.0230103.3039551.1170044.5609741.2340088.7940063.117981.256958.2589722.4439697.4699707.5839844.2119751.1640015.4699707.2340088.776001.2340088.4229736,0,.7520142-.1640015.9869995-.467041.2109985-.3039551.3759766-.6539917.492981-1.052002.0939941-.3969727.1409912-.8169556.1650391-1.2609863.0230103-.4209595.0230103-.7709961.0230103-1.0280151"/>
  <path class="st1" d="M39.2865423,20.464115c0,.812967-.1316138,1.5946453-.4205067,2.3176276-.288893.7219672-.7093475,1.3539498-1.2615201,1.8656144-.5521205.5116646-1.1836891.9323295-1.946089,1.2336319-.7623477.3013621-1.5768611.4509981-2.4973748.4509981-.8940137,0-1.708527-.1203179-2.4452614-.3903316-.7623477-.2709691-1.3930817-.6319826-1.9452544-1.1436472-.5521205-.5116646-.9726272-1.1133139-1.261468-1.8666295-.3162277-.7219672-.4735069-1.5339788-.4735069-2.4672637,0-.7523005.1051136-1.4146163.3418932-2.0162656.2367274-.5713758.4991202-1.0829807.8409613-1.5046607.3418932-.4216203.7102865-.7523005,1.1042931-1.0233293.3940066-.2709691.7623477-.4509981,1.1042409-.5409828-.2632797-.1203179-.5521205-.3013023-.8940137-.5116646-.3418932-.2113177-.6572341-.5116646-.9461271-.8726184-.3153931-.3316953-.5786206-.7523602-.7623999-1.2639651-.2102273-.4813314-.3153409-1.0536625-.3153409-1.7159783,0-.8120116.157227-1.5339788.4726201-2.1659614.2897276-.6319826.7102343-1.1436472,1.2358547-1.5956007.4991724-.4207246,1.1042409-.7523602,1.7880273-.992996.6828474-.2103623,1.3931339-.3306802,2.1554816-.3306802.7623999,0,1.4982475.0899847,2.1819817.300347.6837864.2113177,1.2880203.5419979,1.8145274.9636181.4991202.4509981.919627.9626628,1.2093546,1.5946453.288893.6319826.4470068,1.384283.4470068,2.2266279,0,.6926491-.1051136,1.2942984-.3162277,1.805963-.2358927.5116646-.4991202.9029516-.7880132,1.2336319-.2897276.3316356-.6051207.6016493-.9470139.812967-.341841.2103623-.630734.3306802-.8675135.4206649.3948934.1809844.8154001.3913467,1.2094067.6623158.3948413.2710288.7623477.6319826,1.1042409,1.0233293.3153931.3913467.5786206.8726184.7888479,1.4439941.1837793.5722714.288893,1.2639651.288893,2.0465988M35.2379197,20.1031015c0-.4509981-.0265001-.8726184-.1051136-1.2639651-.0786135-.391287-.2102273-.7219672-.3683933-1.0232696-.1837272-.300347-.3940066-.5410425-.6572341-.7220269-.2623929-.1506512-.5777338-.2406358-.9461271-.2406358-.7623477,0-1.2880203.300347-1.6033612.9323295-.3153931.6319826-.4735069,1.4146163-.4735069,2.3175679,0,.42168.0265001.8423448.1051136,1.2336916.0786657.391287.1837793.7523005.3418932,1.0839361.157227.3306802.3683411.571316.630734.7523005.2632275.2103623.6051207.300347.9991273.300347.4470068,0,.7889-.0899847,1.0777408-.300347.2632797-.1809844.4735069-.4216203.6307862-.7523005.1316138-.3316356.2367274-.6926491.2897276-1.0839361.0521134-.3913467.0786135-.8120116.0786135-1.2336916M34.9225788,11.4362705c0-.3306205-.0265001-.6622561-.0786657-.9929363-.0795003-.3306802-.184614-.6016493-.3153931-.8423448-.1316138-.2406358-.3162277-.4519535-.5521205-.6026047-.2367274-.1496958-.4999549-.2103623-.815348-.2103623-.630734,0-1.0777408.2709691-1.3409683.7826337-.288893.5419979-.4205067,1.1730251-.4205067,1.8656144,0,.3306802.0265001.6320423.0786135.9626628.0530002.3316953.1581139.6623158.2897276.9333446.1316138.2709691.3153931.5116646.5521205.691634.2102794.1809844.4991202.2710288.8410134.2710288s.6051207-.0900444.8410134-.2406955c.2102273-.1506512.3948413-.3913467.526455-.6623158.1307791-.2700137.2358927-.571316.3153931-.9019963.0521656-.3316356.0786657-.6926491.0786657-1.0536625"/>
</svg>