<?xml version="1.0" encoding="UTF-8"?>
<svg id="Capa_2" xmlns="http://www.w3.org/2000/svg" version="1.1" viewBox="0 0 57.2280083 32.0120354">
  <!-- Generator: Adobe Illustrator 29.0.0, SVG Export Plug-In . SVG Version: 2.1.0 Build 186)  -->
  <defs>
    <style>
      .st0 {
        fill-rule: evenodd;
      }

      .st0, .st1 {
        fill: #fff;
      }

      .st2 {
        fill: #0033a1;
      }
    </style>
  </defs>
  <g id="Capa_1-2">
    <g>
      <g>
        <path class="st2" d="M42.544014.9H14.6839962C7.1040101.9.9,7.103003.9,14.6840572v2.6439819c0,7.5800171,6.203003,13.7839966,13.7839962,13.7839966h27.8600178c7.5809937,0,13.7839966-6.2030029,13.7839966-13.7839966v-2.6439819c0-7.5810547-6.2050171-13.7840576-13.7839966-13.7840576"/>
        <path class="st1" d="M42.5439453,32.0128784H14.684082c-8.0966797,0-14.684082-6.5878906-14.684082-14.6845703v-2.644043C0,6.5875854,6.5874023.0001831,14.684082.0001831h27.8598633C50.640625.0001831,57.2285156,6.5875854,57.2285156,14.6842651v2.644043c0,8.0966797-6.5878906,14.6845703-14.6845703,14.6845703ZM14.684082,1.7999878C7.5795898,1.7999878,1.7998047,7.5797729,1.7998047,14.6842651v2.644043c0,7.1044922,5.7797852,12.8837891,12.8842773,12.8837891h27.8598633c7.1044922,0,12.8837891-5.7792969,12.8837891-12.8837891v-2.644043c0-7.1044922-5.7792969-12.8842773-12.8837891-12.8842773H14.684082Z"/>
      </g>
      <path class="st0" d="M19.6008968,12.4623165l3.5689697-3.5689697c-3.9309998-3.9320068-10.3449707-3.9320068-14.2769775,0s-3.9320068,10.3449707,0,14.2769775,10.3459778,3.9320068,14.2769775,0l-3.6459961-3.6459961c-1.7850037,1.7839966-4.7339783,2.4050293-7.0619812.0770264-1.9649963-1.9660034-1.9649963-5.1730347,0-7.1390381,1.9660034-1.9659424,5.1730042-1.9659424,7.1390076,0"/>
      <rect class="st1" x="24.4409237" y="14.3479366" width="8.4079914" height="3.367981"/>
      <path class="st1" d="M46.6319962,21.1067867v5.0130005h-4.7049866v-5.0130005h-8.210022v-2.4900513l6.980011-12.6699829h5.7810059v11.9310303h2.4289856v3.2290039h-2.2749939ZM41.9270096,9.4217281h-.2770081l-4.3970032,8.4560547h4.6740112v-8.4560547Z"/>
    </g>
  </g>
</svg>