<?xml version="1.0" encoding="UTF-8"?>
<svg id="Capa_2" xmlns="http://www.w3.org/2000/svg" version="1.1" viewBox="0 0 57.2280388 32.0120354">
  <!-- Generator: Adobe Illustrator 29.0.0, SVG Export Plug-In . SVG Version: 2.1.0 Build 186)  -->
  <defs>
    <style>
      .st0 {
        fill-rule: evenodd;
      }

      .st0, .st1 {
        fill: #fff;
      }

      .st2 {
        fill: #76777a;
      }
    </style>
  </defs>
  <g id="Capa_1-2">
    <g>
      <g>
        <path class="st2" d="M42.5440445.9H14.6839962C7.1040406.9.9,7.103003.9,14.6840572v2.6439819c0,7.5800171,6.203003,13.7839966,13.7839962,13.7839966h27.8600483c7.5809937,0,13.7839966-6.2030029,13.7839966-13.7839966v-2.6439819c0-7.5810547-6.2040405-13.7840576-13.7839966-13.7840576"/>
        <path class="st1" d="M42.5439453,32.0128784H14.684082c-8.0966797,0-14.684082-6.5878906-14.684082-14.6845703v-2.644043C0,6.5875854,6.5874023.0001831,14.684082.0001831h27.8598633C50.640625.0001831,57.2285156,6.5875854,57.2285156,14.6842651v2.644043c0,8.0966797-6.5878906,14.6845703-14.6845703,14.6845703ZM14.684082,1.7999878C7.5795898,1.7999878,1.7998047,7.5797729,1.7998047,14.6842651v2.644043c0,7.1044922,5.7797852,12.8837891,12.8842773,12.8837891h27.8598633c7.1044922,0,12.8837891-5.7792969,12.8837891-12.8837891v-2.644043c0-7.1044922-5.7792969-12.8842773-12.8837891-12.8842773H14.684082Z"/>
      </g>
      <path class="st0" d="M19.6009274,12.4623165l3.5689697-3.5689697c-3.9320068-3.9320068-10.3449707-3.9320068-14.2769775,0s-3.9320068,10.3449707,0,14.2769775,10.3449707,3.9320068,14.2769775,0l-3.6459961-3.6459961c-1.7850342,1.7839966-4.7340088,2.4050293-7.0620117.0770264-1.9660034-1.9660034-1.9660034-5.1730347,0-7.1390381,1.9660034-1.9659424,5.1730347-1.9659424,7.1390381,0"/>
      <rect class="st1" x="24.440649" y="14.3479366" width="8.4080219" height="3.3690186"/>
      <path class="st1" d="M48.5072403,20.4593258c0,.8309937-.1539917,1.6300049-.4920044,2.3690186-.3380127.7379761-.8299561,1.3839722-1.4760132,1.9069824-.6459961.5230103-1.3849487.9530029-2.2769775,1.2609863-.8919678.3080444-1.8449707.4609985-2.9219971.4609985-1.0460205,0-1.9990234-.1229858-2.8610229-.3989868-.8919678-.2769775-1.6299438-.6459961-2.276001-1.1690063-.6459961-.5230103-1.1380005-1.1380005-1.4759521-1.90802-.3699951-.7379761-.5540161-1.5679932-.5540161-2.5219727,0-.7689819.1229858-1.4459839.4000244-2.0609741.2769775-.5840454.5839844-1.1069946.9839478-1.5380249.4000244-.4309692.8310547-.7689819,1.2920532-1.0460205.4609985-.2769775.8919678-.4609985,1.2919922-.5529785-.3080444-.1229858-.6459961-.3079834-1.0460205-.5230103-.4000244-.2160034-.7689819-.5230103-1.1069946-.8919678-.3690186-.3390503-.677002-.769043-.8920288-1.2919922-.2459717-.4920044-.3689575-1.0770264-.3689575-1.7540283,0-.8300171.18396-1.5679932.5529785-2.2139893.3389893-.6459961.8309937-1.1690063,1.4459839-1.6309814.5840454-.4300537,1.2919922-.769043,2.092041-1.0150146.7989502-.2150269,1.6300049-.3380127,2.5219727-.3380127.8920288,0,1.7529907.09198,2.5529785.3070068.8000488.2160034,1.507019.5540161,2.1230469.9849854.5839844.4609985,1.0759888.9840088,1.414978,1.6300049.3380127.6459961.5230103,1.414978.5230103,2.276001,0,.7080078-.1229858,1.322998-.3699951,1.8460083-.276001.5230103-.5839844.9229736-.9219971,1.2609863-.3389893.3389893-.7080078.6149902-1.1080322.8309937-.3999634.2150269-.7379761.3380127-1.0150146.4299927.4620361.1849976.9540405.4000244,1.4150391.677002.4619751.2770386.8919678.6459961,1.2919922,1.0460205.3690186.4000244.677002.8919678.9229736,1.4760132.2150269.5849609.3380127,1.2919922.3380127,2.09198M43.7702408,20.0903072c0-.4609985-.0310059-.8919678-.1229858-1.2919922-.09198-.3999634-.2459717-.7379761-.4310303-1.0459595-.2149658-.3070068-.4609985-.5530396-.7689819-.7380371-.3070068-.1539917-.6759644-.2459717-1.1069946-.2459717-.8919678,0-1.507019.3070068-1.8759766.9530029-.3690186.6459961-.5540161,1.4459839-.5540161,2.3689575,0,.4310303.0310059.8610229.1229858,1.2610474.092041.3999634.2150269.7689819.4000244,1.1079712.18396.3380127.4309692.5839844.7379761.7689819.3079834.2150269.7080078.3070068,1.1690063.3070068.5230103,0,.9230347-.09198,1.2609863-.3070068.3080444-.1849976.5540161-.4309692.7380371-.7689819.1539917-.3389893.2769775-.7080078.3389893-1.1079712.0609741-.4000244.09198-.8300171.09198-1.2610474M43.4012833,11.2312984c0-.3379517-.0310059-.6769409-.092041-1.0149536-.0930176-.3380127-.2160034-.6149902-.3690186-.8610229-.1539917-.2459717-.3699951-.4619751-.6459961-.6159668-.2769775-.1530151-.5849609-.2150269-.9539795-.2150269-.7379761,0-1.2609863.2769775-1.5689697.7999878-.3380127.5540161-.4920044,1.1990356-.4920044,1.9069824,0,.3380127.0310059.6460571.09198.9840088.0620117.3390503.1849976.677002.3389893.9540405.1539917.2769775.3690186.5230103.6459961.7069702.2460327.1849976.5839844.2770386.9840088.2770386s.7080078-.092041.9840088-.2460327c.2459717-.1539917.4619751-.4000244.6159668-.677002.1530151-.276001.276001-.5839844.3690186-.9219971.0610352-.3389893.092041-.7080078.092041-1.0770264"/>
    </g>
  </g>
</svg>