<?xml version="1.0" encoding="UTF-8"?>
<svg id="Capa_2" xmlns="http://www.w3.org/2000/svg" version="1.1" viewBox="0 0 57.2280388 32.0120354">
  <!-- Generator: Adobe Illustrator 29.0.0, SVG Export Plug-In . SVG Version: 2.1.0 Build 186)  -->
  <defs>
    <style>
      .st0 {
        fill-rule: evenodd;
      }

      .st0, .st1 {
        fill: #54565a;
      }

      .st2 {
        fill: #fff;
      }

      .st3 {
        fill: #ffb71b;
      }
    </style>
  </defs>
  <g id="Capa_1-2">
    <g>
      <g>
        <path class="st3" d="M42.5440445.9H14.6839962C7.1040406.9.9,7.103003.9,14.6840572v2.6439819c0,7.5800171,6.203003,13.7839966,13.7839962,13.7839966h27.8600483c7.5809937,0,13.7839966-6.2030029,13.7839966-13.7839966v-2.6439819c0-7.5810547-6.2040405-13.7840576-13.7839966-13.7840576"/>
        <path class="st2" d="M42.5439453,32.0128784H14.684082c-8.0966797,0-14.684082-6.5878906-14.684082-14.6845703v-2.644043C0,6.5875854,6.5874023.0001831,14.684082.0001831h27.8598633C50.640625.0001831,57.2285156,6.5875854,57.2285156,14.6842651v2.644043c0,8.0966797-6.5878906,14.6845703-14.6845703,14.6845703ZM14.684082,1.7999878C7.5795898,1.7999878,1.7998047,7.5797729,1.7998047,14.6842651v2.644043c0,7.1044922,5.7797852,12.8837891,12.8842773,12.8837891h27.8598633c7.1044922,0,12.8837891-5.7792969,12.8837891-12.8837891v-2.644043c0-7.1044922-5.7792969-12.8842773-12.8837891-12.8842773H14.684082Z"/>
      </g>
      <path class="st0" d="M19.6008663,12.2673092l3.5689697-3.5689697c-3.9320068-3.9320068-10.3449707-3.9320068-14.2769775,0s-3.9320068,10.3449707,0,14.2769775,10.3449707,3.9320068,14.2769775,0l-3.6459961-3.6459961c-1.7850342,1.7839966-4.7340088,2.4050293-7.0620117.0770264-1.9660034-1.9660034-1.9660034-5.1730347,0-7.1390381,1.9660034-1.9659424,5.1730347-1.9659424,7.1390381,0"/>
      <rect class="st1" x="24.4412594" y="14.1529293" width="8.4080219" height="3.3690186"/>
      <path class="st1" d="M47.9208145,19.1592159c0,2.1830444-.7070312,3.9360352-2.1530151,5.1970215-1.4450073,1.2609863-3.6279907,1.9060059-6.6110229,1.9060059-.5230103,0-1.1679688-.0609741-1.9069824-.1530151-.7380371-.0929565-1.6290283-.3079834-2.6439819-.5849609l.3689575-3.473999c.8920288.3379517,1.69104.5529785,2.460022.6449585.7379761.0930176,1.3220215.1539917,1.7839966.1539917,1.2910156,0,2.2440186-.3379517,2.8590088-.9839478s.9229736-1.507019.9229736-2.552002c0-.9230347-.3079834-1.6610107-.8919678-2.2449951-.5840454-.5840454-1.4450073-.8610229-2.552002-.8610229-.5840454,0-1.2609863.0310059-1.9990234.1229858-.7379761.09198-1.5379639.2150269-2.4290161.4000244l.3690186-10.9780273h11.4700317v3.4130249h-7.2880249l-.0620117,4.0280151c.2160034-.0300293.5230103-.092041.9230347-.1230469.3689575-.0299683.7379761-.0299683,1.1069946-.0299683.8299561,0,1.6300049.1229858,2.3980103.3689575.7689819.276001,1.414978.6450195,1.9989624,1.1370239.5839844.5230103,1.0460205,1.1380005,1.3840332,1.9069824.3379517.769043.4920044,1.69104.4920044,2.7059937"/>
    </g>
  </g>
</svg>