<?xml version="1.0" encoding="UTF-8"?>
<svg id="Capa_2" xmlns="http://www.w3.org/2000/svg" version="1.1" viewBox="0 0 57.2000008 32">
  <!-- Generator: Adobe Illustrator 29.0.0, SVG Export Plug-In . SVG Version: 2.1.0 Build 186)  -->
  <defs>
    <style>
      .st0 {
        fill-rule: evenodd;
      }

      .st0, .st1 {
        fill: #fff;
      }

      .st2 {
        fill: #e95ebe;
      }
    </style>
  </defs>
  <g id="Capa_1-2">
    <g>
      <path class="st2" d="M42.5.9H14.6999998C7.0999999.9.9,7.0999999.9,14.6999998v2.5999994c0,7.6000004,6.1999999,13.7999992,13.7999998,13.7999992h27.8999987c7.5999985,0,13.7999992-6.2000008,13.7999992-13.7999992v-2.6000004c0-7.5999999-6.2000008-13.8000002-13.7999992-13.8000002"/>
      <path class="st1" d="M42.5,32H14.6999998c-8.1000004,0-14.6999998-6.6000004-14.6999998-14.7000008v-2.6000004C0,6.5999999,6.5999999,0,14.6999998,0h27.8999987C50.5999985,0,57.2000008,6.5999999,57.2000008,14.6999998v2.5999994c0,8.1000004-6.5999985,14.7000008-14.7000008,14.7000008ZM14.6999998,1.8C7.5999999,1.8,1.8,7.5999999,1.8,14.6999998v2.5999994c0,7.1000004,5.8000004,12.8999996,12.8999999,12.8999996h27.8999987c7.0999985,0,12.9000015-5.8000011,12.9000015-12.8999996v-2.6000004c0-7.0999999-5.7999992-12.8999996-12.9000015-12.8999996,0,0-27.8999996,0-27.8999987.0000007Z"/>
    </g>
  </g>
  <g>
    <path class="st0" d="M19.6183182,12.2925461l3.5719321-3.5752259c-3.9361732-3.9401251-10.358801-3.9401251-14.2982686,0-3.9394664,3.9374913-3.9394664,10.3620948,0,14.2995855s10.3620942,3.9374907,14.2982686,0l-3.6503122-3.6522891c-1.7869545,1.7869545-4.7423785,2.4087327-7.0727299.0770638-1.9713798-1.9680872-1.9713798-5.1810471,0-7.1491343,1.9700629-1.9700629,5.1777539-1.9700629,7.15111,0Z"/>
    <rect class="st1" x="21.7168212" y="14.1802763" width="5.0526082" height="3.3736752"/>
    <path class="st0" d="M38.3375372,19.9251389c0,2.0688616-.5842354,3.6279191-1.7513873,4.6824401-1.1684683,1.0532022-2.8210569,1.5794737-4.9643473,1.5794737-.2746613,0-.6086054-.0184405-1.0044622-.0592778-.3958569-.039521-.7989571-.0895797-1.2079893-.1495169-.4110054-.0619153-.8121299-.1422711-1.1967897-.243048-.3846597-.0987988-.7093822-.2087947-.963625-.3299902l.2819071-3.4019978c.650102.3602897,1.321939.5974082,2.0036544.7074066.6869855.1099959,1.2488265.1659817,1.6769586.1659817,1.1309254,0,1.9246149-.2871773,2.3744819-.8582373.4590885-.5717219.6850098-1.370679.6850098-2.3935842,0-.6817166-.2423886-1.2547536-.7186013-1.7164771-.4834609-.4610642-1.1072148-.6922556-1.8785099-.6922556h-2.6023789v-3.3124193h2.653097c.7897381,0,1.3719953-.2443643,1.7494092-.7377024.3754382-.4907043.5638167-1.0881125.5638167-1.7902477,0-.6421968-.1883785-1.1836186-.5638167-1.6262404-.3774139-.4406461-.9504521-.6626155-1.7270149-.6626155-.6329754,0-1.2468508.0559864-1.8521618.1659829-.5993839.1099971-1.2231378.3154998-1.8745561.6178268l-.5170524-3.3117605c.7745895-.2819084,1.5663033-.4821416,2.3804113-.6033359.8121324-.119218,1.6110895-.1791564,2.3804089-.1791564.8048866,0,1.5570818.0987994,2.2480187.3003507.7001608.2002332,1.2995447.5117811,1.8185703.9339848.5150743.4195687.9221283.9576967,1.2191864,1.609115.3023258.653394.4518427,1.4299586.4518427,2.3336446,0,.6428562-.1119716,1.2099649-.3359173,1.7013286-.2206537.49268-.4986094.9129068-.8200375,1.2639751-.3319659.3530439-.6850098.6329754-1.0696695.8437482-.3846597.2107716-.7317741.3569953-1.0420051.4366941.4445993.0994581.8852448.2766382,1.3127175.5269308.4294484.2502913.8141081.5769883,1.1539767.9781153.3471169.4017839.6198025.8740465.8233295,1.4154676.2055051.5414212.3135254,1.1440983.3135254,1.8053962Z"/>
    <path class="st0" d="M46.3027552,19.5536532c-.1363416-.0599384-.2950824-.1099971-.4874098-.1495169-.1903566-.0408373-.4090297-.0619141-.6665693-.0619141-.3082553,0-.5730358.0658667-.7877624.1962812-.2147217.1310739-.3846597.302327-.5098042.5117823-.1291007.2107716-.218678.4478913-.2707124.7074041-.0559858.2614885-.0803558.5322009-.0803558.8141081,0,.5005851.1027501.9221283.3010095,1.2639751.1956218.3418467.5130986.5117823.9609899.5117823.498607,0,.8793153-.1758626,1.142782-.5269308.2687319-.3504089.3978326-.7673437.3978326-1.2488265v-2.0181447h0ZM46.6926851,25.9670608l-.2331696-1.7461172c-.3754382.5809409-.7917137,1.0624237-1.2323593,1.4451078-.449867.3813653-1.064397.5717195-1.8521593.5717195-1.233678,0-2.1900572-.3919055-2.8546483-1.1743978-.6665693-.7824923-1.0064379-1.8561131-1.0064379-3.2208651,0-1.4655252.4294484-2.6346528,1.2883451-3.5080411.8569235-.8720708,2.076105-1.3087649,3.6536054-1.3087649.5117847,0,.8872229.0243712,1.1296091.07443.2410723.0507169.4781884.0955056.717285.1363428v-1.7158189c0-.5822585-.1719136-1.0196108-.5117798-1.3107406-.3411898-.2911286-.8233295-.4366929-1.4431345-.4366929-1.040027,0-2.0780831.2614885-3.1069154.7838098l-.5657924-2.9218325c.668545-.3398698,1.4319373-.5710613,2.2855639-.6909381.856921-.1211931,1.6578562-.1811315,2.3916085-.1811315,1.6150433,0,2.8118305.3714856,3.6015686,1.1131406.7897381.7429725,1.1836192,1.7770749,1.1836192,3.1009883v8.1891637c0,.4630398.02437.9293741.07311,1.4003191.054015.4722613.1060494.939255.1547894,1.4003191h-3.6727078Z"/>
  </g>
</svg>