<?xml version="1.0" encoding="UTF-8"?>
<svg id="Capa_2" xmlns="http://www.w3.org/2000/svg" version="1.1" viewBox="0 0 57.2270012 32.0120354">
  <!-- Generator: Adobe Illustrator 29.0.0, SVG Export Plug-In . SVG Version: 2.1.0 Build 186)  -->
  <defs>
    <style>
      .st0 {
        fill-rule: evenodd;
      }

      .st0, .st1 {
        fill: #fff;
      }

      .st2 {
        fill: #f5333f;
      }
    </style>
  </defs>
  <g id="Capa_1-2">
    <g>
      <g>
        <path class="st2" d="M42.5430069.9H14.6829586C7.103003.9.9,7.103003.9,14.6840572v2.6439819c0,7.5800171,6.2019655,13.7839966,13.7829586,13.7839966h27.8600483c7.5809937,0,13.7839966-6.2030029,13.7839966-13.7839966v-2.6439819c0-7.5810547-6.2040405-13.7840576-13.7839966-13.7840576"/>
        <path class="st1" d="M42.5429688,32.0128784H14.6831055c-8.0961914,0-14.6831055-6.5878906-14.6831055-14.6845703v-2.644043C0,6.5875854,6.5869141.0001831,14.6831055.0001831h27.8598633C50.6396484.0001831,57.2275391,6.5875854,57.2275391,14.6842651v2.644043c0,8.0966797-6.5878906,14.6845703-14.6845703,14.6845703ZM14.6831055,1.7999878C7.5791016,1.7999878,1.7998047,7.5797729,1.7998047,14.6842651v2.644043c0,7.1044922,5.7792969,12.8837891,12.8833008,12.8837891h27.8598633c7.1044922,0,12.8837891-5.7792969,12.8837891-12.8837891v-2.644043c0-7.1044922-5.7792969-12.8842773-12.8837891-12.8842773H14.6831055Z"/>
      </g>
      <path class="st0" d="M19.6001339,12.4621334l3.5689697-3.5689697c-3.9320068-3.9320068-10.3449707-3.9320068-14.2769775,0s-3.9320068,10.3449707,0,14.2769775,10.3449707,3.9320068,14.2769775,0l-3.6459961-3.6459961c-1.7850342,1.7839966-4.7340088,2.4050293-7.0620117.0770264-1.9660034-1.9660034-1.9660034-5.1730347,0-7.1390381,1.9660034-1.9659424,5.1730347-1.9659424,7.1390381,0"/>
      <rect class="st1" x="24.4400387" y="14.3479366" width="8.4080219" height="3.367981"/>
      <path class="st1" d="M47.9142227,8.0069332c-.6150513,1.4450073-1.2300415,2.9830322-1.8760376,4.6430054-.6459961,1.6610107-1.2609863,3.3210449-1.9060059,5.0130005-.6459961,1.69104-1.2609863,3.3520508-1.8759766,4.9810181-.6149902,1.6300049-1.1990356,3.1370239-1.7219849,4.4899902l-4.5820312-1.782959c.5230103-1.2610474,1.0759888-2.6140137,1.6600342-4.0599976.5849609-1.4140015,1.1999512-2.8290405,1.8149414-4.243042.6150513-1.414978,1.2300415-2.7990112,1.8140259-4.1209717.5839844-1.3220215,1.1380005-2.4910278,1.6300049-3.5670166h-8.5800171v-3.4130249h13.6230469v2.0599976Z"/>
    </g>
  </g>
</svg>