<?xml version="1.0" encoding="UTF-8"?>
<svg id="Capa_2" xmlns="http://www.w3.org/2000/svg" version="1.1" viewBox="0 0 57.227993 32.0120354">
  <!-- Generator: Adobe Illustrator 29.0.0, SVG Export Plug-In . SVG Version: 2.1.0 Build 186)  -->
  <defs>
    <style>
      .st0 {
        fill-rule: evenodd;
      }

      .st0, .st1 {
        fill: #fff;
      }

      .st2 {
        fill: #00953b;
      }
    </style>
  </defs>
  <g id="Capa_1-2">
    <g>
      <g>
        <path class="st2" d="M42.544014.9H14.6840115C7.1040101.9.9,7.103003.9,14.6840572v2.6439819c0,7.5800171,6.203003,13.7839966,13.7840115,13.7839966h27.8600025c7.5809784,0,13.7839813-6.2030029,13.7839813-13.7839966v-2.6439819c0-7.5810547-6.20401-13.7840576-13.7839813-13.7840576"/>
        <path class="st1" d="M42.5439453,32.0128784H14.684082c-8.0966797,0-14.684082-6.5878906-14.684082-14.6845703v-2.644043C0,6.5875854,6.5874023.0001831,14.684082.0001831h27.8598633C50.640625.0001831,57.2285156,6.5875854,57.2285156,14.6842651v2.644043c0,8.0966797-6.5878906,14.6845703-14.6845703,14.6845703ZM14.684082,1.7999878C7.5795898,1.7999878,1.7998047,7.5797729,1.7998047,14.6842651v2.644043c0,7.1044922,5.7797852,12.8837891,12.8842773,12.8837891h27.8598633c7.1044922,0,12.8837891-5.7792969,12.8837891-12.8837891v-2.644043c0-7.1044922-5.7792969-12.8842773-12.8837891-12.8842773H14.684082Z"/>
      </g>
      <path class="st0" d="M19.6010036,12.4623165l3.568985-3.5689697c-3.9319916-3.9320068-10.344986-3.9320068-14.2769928,0s-3.9320068,10.3449707,0,14.2769775,10.3450012,3.9320068,14.2769928,0l-3.6459961-3.6459961c-1.7850037,1.7839966-4.7339935,2.4050293-7.0619965.0770264-1.9660034-1.9660034-1.9660034-5.1730347,0-7.1390381,1.9660034-1.9659424,5.1730042-1.9659424,7.1390076,0"/>
      <rect class="st1" x="24.4411983" y="14.3479366" width="8.4080067" height="3.3690186"/>
      <path class="st1" d="M34.4882126,26.1192989v-2.2759399c0-1.0450439.2149963-1.9680176.6459961-2.7980347.3999939-.8300171.9219971-1.5679932,1.5679932-2.2449951.6150055-.6760254,1.2920074-1.3220215,2.0299988-1.9060059.7380066-.585022,1.4140015-1.1690063,2.0599976-1.7529907.6150055-.5839844,1.1380005-1.1690063,1.5680084-1.7839966.3999939-.6149902.6150055-1.2910156.6150055-2.0289917,0-.7070312-.2150116-1.2919922-.6460114-1.7220459-.4609985-.3999634-1.1369934-.6149902-2.0599976-.6149902-.5839996,0-1.2299957.0610352-1.8759918.1539917-.6450043.092041-1.4760132.3990479-2.4600067.9220581l-1.076004-3.2600098c.9230042-.4609985,1.9370117-.7990112,3.0440063-.9530029s2.1529999-.2460327,3.1679993-.2460327c.9530029,0,1.8450012.092041,2.6749878.3080444.8300171.2149658,1.5379944.5529785,2.1530151.9839478.5839844.4609985,1.0759888,1.0150146,1.4140015,1.7220459.3379822.7069702.5229797,1.506958.5229797,2.4599609,0,.9219971-.2149963,1.78302-.6149902,2.5830078-.4309998.8300171-.9530029,1.598999-1.5679932,2.3060303-.6459961.7080078-1.322998,1.3839722-2.0610046,1.9989624-.7379913.6149902-1.4140015,1.1990356-2.0289917,1.7529907-.6460114.5530396-1.1690063,1.0760498-1.5690002,1.5680542-.4300079.4919434-.6450043.9529419-.6450043,1.414978h8.7329865v3.4129639h-13.59198Z"/>
    </g>
  </g>
</svg>