<?xml version="1.0" encoding="UTF-8"?>
<svg id="Capa_2" xmlns="http://www.w3.org/2000/svg" version="1.1" viewBox="0 0 57.2280388 32.0120354">
  <!-- Generator: Adobe Illustrator 29.0.0, SVG Export Plug-In . SVG Version: 2.1.0 Build 186)  -->
  <defs>
    <style>
      .st0 {
        fill: #c2d500;
      }

      .st1 {
        fill-rule: evenodd;
      }

      .st1, .st2 {
        fill: #54565a;
      }

      .st3 {
        fill: #fff;
      }
    </style>
  </defs>
  <g id="Capa_1-2">
    <g>
      <g>
        <path class="st0" d="M42.5440445.9H14.6839962C7.1040406.9.9,7.103003.9,14.6840572v2.6439819c0,7.5800171,6.203003,13.7839966,13.7839962,13.7839966h27.8600483c7.5809937,0,13.7839966-6.2030029,13.7839966-13.7839966v-2.6439819c0-7.5810547-6.2040405-13.7840576-13.7839966-13.7840576"/>
        <path class="st3" d="M42.5439453,32.0128784H14.684082c-8.0966797,0-14.684082-6.5878906-14.684082-14.6845703v-2.644043C0,6.5875854,6.5874023.0001831,14.684082.0001831h27.8598633C50.640625.0001831,57.2285156,6.5875854,57.2285156,14.6842651v2.644043c0,8.0966797-6.5878906,14.6845703-14.6845703,14.6845703ZM14.684082,1.7999878C7.5795898,1.7999878,1.7998047,7.5797729,1.7998047,14.6842651v2.644043c0,7.1044922,5.7797852,12.8837891,12.8842773,12.8837891h27.8598633c7.1044922,0,12.8837891-5.7792969,12.8837891-12.8837891v-2.644043c0-7.1044922-5.7792969-12.8842773-12.8837891-12.8842773H14.684082Z"/>
      </g>
      <path class="st1" d="M19.6009274,12.4621334l3.5689697-3.5689697c-3.9320068-3.9320068-10.3449707-3.9320068-14.2769775,0s-3.9320068,10.3449707,0,14.2769775,10.3449707,3.9320068,14.2769775,0l-3.6459961-3.6459961c-1.7850342,1.7839966-4.7340088,2.4050293-7.0620117.0770264-1.9660034-1.9660034-1.9660034-5.1730347,0-7.1390381,1.9660034-1.9659424,5.1730347-1.9659424,7.1390381,0"/>
      <rect class="st2" x="22.7961178" y="14.3479366" width="5.0029907" height="3.367981"/>
      <polygon class="st2" points="28.3111935 26.0602169 28.3111935 22.6612301 31.93717 22.6612301 31.93717 9.8292599 28.0321407 12.463232 27.8041744 8.7572384 32.0381851 5.9702516 35.9431534 5.9702516 35.9431534 22.6612301 39.2651749 22.6612301 39.2651749 26.0602169 28.3111935 26.0602169"/>
      <path class="st2" d="M51.336586,15.5252438c0,1.1330566-.0499878,2.3580322-.177002,3.6140137-.1270142,1.2550049-.3809814,2.4500122-.7860107,3.5220337-.4309692,1.0709839-1.039978,1.9599609-1.8259888,2.6640015-.8110352.7039795-1.9020386,1.0719604-3.2960205,1.0719604-.9379883,0-1.723999-.1529541-2.3839722-.4899902-.6589966-.3369751-1.217041-.7659912-1.6730347-1.3170166-.4569702-.5509644-.8120117-1.1939697-1.0650024-1.9289551-.2789917-.7050171-.4819946-1.4700317-.6090088-2.2969971-.1519775-.7969971-.2529907-1.6230469-.2789917-2.4500122-.0499878-.8270264-.0759888-1.6229858-.0759888-2.3890381,0-1.0719604.0759888-2.2049561.2290039-3.3689575.1519775-1.1630249.4559937-2.2349854.8870239-3.2150269.4309692-.9500122,1.0650024-1.7459717,1.8509521-2.3889771.7860107-.6130371,1.8260498-.9190063,3.1190186-.9190063,1.2930298,0,2.3580322.3059692,3.1439819.9190063.7860107.6119995,1.4200439,1.4089966,1.8510132,2.3579712.4310303.9800415.7349854,2.052002.8870239,3.2160034.1270142,1.1630249.2030029,2.2969971.2030029,3.3989868M47.3306046,15.5252438c0-.4589844-.0250244-1.0409546-.0510254-1.8069458-.0499878-.7350464-.1519775-1.4390259-.2789917-2.144043-.1260376-.7039795-.3290405-1.2860107-.6080322-1.8070068-.2789917-.5199585-.6589966-.7649536-1.1409912-.7649536s-.8369751.2449951-1.1159668.7649536c-.2790527.5209961-.507019,1.1030273-.6340332,1.8070068-.1270142.7050171-.2279663,1.4089966-.2529907,2.144043-.0510254.7659912-.0759888,1.3479614-.0759888,1.8069458,0,.3370361,0,.7350464.0249634,1.2250366,0,.5209961.0250244,1.0410156.0760498,1.5930176.0509644.5809937.1269531,1.1329956.2030029,1.68396.0759888.5510254.2030029,1.0410156.3549805,1.5010376.1519775.4589844.3549805.7959595.5830078,1.0709839.2279663.276001.506958.4290161.8369751.4290161.3290405,0,.6080322-.1530151.8370361-.4290161.2279663-.2750244.4049683-.6119995.5829468-1.0709839.1520386-.460022.2790527-.9500122.3550415-1.5010376.0759888-.5509644.1519775-1.1029663.2030029-1.68396.0499878-.552002.0759888-1.0720215.1010132-1.5930176v-1.2250366Z"/>
    </g>
  </g>
</svg>