<?xml version="1.0" encoding="UTF-8"?>
<svg id="Capa_2" xmlns="http://www.w3.org/2000/svg" version="1.1" viewBox="0 0 57.2000008 32">
  <!-- Generator: Adobe Illustrator 29.0.0, SVG Export Plug-In . SVG Version: 2.1.0 Build 186)  -->
  <defs>
    <style>
      .st0 {
        fill-rule: evenodd;
      }

      .st0, .st1 {
        fill: #fff;
      }

      .st2 {
        fill: #76777a;
      }
    </style>
  </defs>
  <g id="Capa_1-2">
    <g>
      <g>
        <path class="st2" d="M42.5.9H14.6999998C7.0999999.9.9,7.0999999.9,14.6999998v2.5999994c0,7.6000004,6.1999999,13.7999992,13.7999998,13.7999992h27.8999987c7.5999985,0,13.7999992-6.2000008,13.7999992-13.7999992v-2.6000004c0-7.5999999-6.2000008-13.8000002-13.7999992-13.8000002"/>
        <path class="st1" d="M42.5,32H14.6999998c-8.1000004,0-14.6999998-6.6000004-14.6999998-14.7000008v-2.6000004C0,6.5999999,6.5999999,0,14.6999998,0h27.8999987C50.5999985,0,57.2000008,6.5999999,57.2000008,14.6999998v2.5999994c0,8.1000004-6.5999985,14.7000008-14.7000008,14.7000008ZM14.6999998,1.8C7.5999999,1.8,1.8,7.5999999,1.8,14.6999998v2.5999994c0,7.1000004,5.8000004,12.8999996,12.8999999,12.8999996h27.8999987c7.0999985,0,12.9000015-5.8000011,12.9000015-12.8999996v-2.6000004c0-7.0999999-5.7999992-12.8999996-12.9000015-12.8999996,0,0-27.8999987,0-27.8999987.0000007Z"/>
      </g>
      <g>
        <path class="st0" d="M19.6129482,12.3027572l3.5705301-3.5738226c-3.9346282-3.9385786-10.354735-3.9385786-14.2926563,0-3.9379201,3.9359458-3.9379201,10.3580275,0,14.2939727s10.3580269,3.9359452,14.2926563,0l-3.6488794-3.6508555c-1.7862531,1.7862531-4.740517,2.4077872-7.0699537.0770336-1.970606-1.9673147-1.970606-5.1790135,0-7.1463281,1.9692896-1.9692896,5.1757215-1.9692896,7.1483031,0Z"/>
        <rect class="st1" x="21.5" y="14.1897464" width="5.050625" height="3.372351"/>
        <path class="st0" d="M46.9362171,19.5610142c-.1362881-.0599149-.2949666-.109954-.4872185-.1494582-.1902819-.0408212-.4088692-.0618898-.6663076-.0618898-.3081343,0-.5728108.0658408-.7874532.1962042-.2146375.1310225-.3845087.3022083-.5096041.5115814-.12905.2106889-.2185921.4477155-.2706062.7071265-.0559638.2613859-.0803243.531992-.0803243.8137885,0,.5003886.1027098.9217664.3008913,1.2634789.1955451.3417126.5128972.5115814.9606127.5115814.4984113,0,.8789702-.1757936,1.1423334-.526724.2686264-.3502713.3976764-.7670425.3976764-1.2483363v-2.0173526h0ZM47.3259939,25.9719044l-.233078-1.7454318c-.3752909.5807129-.791403,1.0620067-1.2318755,1.4445405-.4496904.3812156-1.0639792.571495-1.8514323.571495-1.2331938,0-2.1891975-.3917517-2.8535278-1.1739368-.6663076-.7821851-1.0060429-1.8553846-1.0060429-3.2196008,0-1.4649499.4292798-2.6336187,1.2878394-3.5066642.8565871-.8717285,2.0752901-1.3082512,3.6521713-1.3082512.5115838,0,.8868747.0243617,1.1291657.0744008.2409777.050697.4780007.0954681.7170034.1362893v-1.7151455c0-.5820299-.1718462-1.0192105-.511579-1.3102261-.3410559-.2910143-.8230064-.4365215-1.442568-.4365215-1.0396187,0-2.0772674.2613859-3.1056958.7835021l-.5655703-2.9206856c.6682826-.3397364,1.4313753-.5708371,2.2846668-.6906669.8565847-.1211455,1.6572055-.1810604,2.3906697-.1810604,1.6144093,0,2.8107268.3713398,3.6001549,1.1127037.7894281.7426809,1.1831547,1.7763773,1.1831547,3.0997711v8.1859493c0,.4628581.0243604.9290093.0730813,1.3997695.0539938.4720759.1060078.9388863.1547287,1.3997695h-3.6712662Z"/>
        <path class="st1" d="M39.2809253,20.3239379c0,.812967-.1316138,1.5946453-.4205067,2.3176276-.288893.7219672-.7093475,1.3539498-1.2615201,1.8656144-.5521205.5116646-1.1836891.9323295-1.946089,1.2336319-.7623477.3013621-1.5768611.4509981-2.4973748.4509981-.8940137,0-1.708527-.1203179-2.4452614-.3903316-.7623477-.2709691-1.3930817-.6319826-1.9452544-1.1436472-.5521205-.5116646-.9726272-1.1133139-1.261468-1.8666295-.3162277-.7219672-.4735069-1.5339788-.4735069-2.4672637,0-.7523005.1051136-1.4146163.3418932-2.0162656.2367274-.5713758.4991202-1.0829807.8409613-1.5046607.3418932-.4216203.7102865-.7523005,1.1042931-1.0233293.3940066-.2709691.7623477-.4509981,1.1042409-.5409828-.2632797-.1203179-.5521205-.3013023-.8940137-.5116646-.3418932-.2113177-.6572341-.5116646-.9461271-.8726184-.3153931-.3316953-.5786206-.7523602-.7623999-1.2639651-.2102273-.4813314-.3153409-1.0536625-.3153409-1.7159783,0-.8120116.157227-1.5339788.4726201-2.1659614.2897276-.6319826.7102343-1.1436472,1.2358547-1.5956007.4991724-.4207246,1.1042409-.7523602,1.7880273-.992996.6828474-.2103623,1.3931339-.3306802,2.1554816-.3306802.7623999,0,1.4982475.0899847,2.1819817.300347.6837864.2113177,1.2880203.5419979,1.8145274.9636181.4991202.4509981.919627.9626628,1.2093546,1.5946453.288893.6319826.4470068,1.384283.4470068,2.2266279,0,.6926491-.1051136,1.2942984-.3162277,1.805963-.2358927.5116646-.4991202.9029516-.7880132,1.2336319-.2897276.3316356-.6051207.6016493-.9470139.812967-.341841.2103623-.630734.3306802-.8675135.4206649.3948934.1809844.8154001.3913467,1.2094067.6623158.3948413.2710288.7623477.6319826,1.1042409,1.0233293.3153931.3913467.5786206.8726184.7888479,1.4439941.1837793.5722714.288893,1.2639651.288893,2.0465988M35.2323027,19.9629244c0-.4509981-.0265001-.8726184-.1051136-1.2639651-.0786135-.391287-.2102273-.7219672-.3683933-1.0232696-.1837272-.300347-.3940066-.5410425-.6572341-.7220269-.2623929-.1506512-.5777338-.2406358-.9461271-.2406358-.7623477,0-1.2880203.300347-1.6033612.9323295-.3153931.6319826-.4735069,1.4146163-.4735069,2.3175679,0,.42168.0265001.8423448.1051136,1.2336916.0786657.391287.1837793.7523005.3418932,1.0839361.157227.3306802.3683411.571316.630734.7523005.2632275.2103623.6051207.300347.9991273.300347.4470068,0,.7889-.0899847,1.0777408-.300347.2632797-.1809844.4735069-.4216203.6307862-.7523005.1316138-.3316356.2367274-.6926491.2897276-1.0839361.0521134-.3913467.0786135-.8120116.0786135-1.2336916M34.9169618,11.2960934c0-.3306205-.0265001-.6622561-.0786657-.9929363-.0795003-.3306802-.184614-.6016493-.3153931-.8423448-.1316138-.2406358-.3162277-.4519535-.5521205-.6026047-.2367274-.1496958-.4999549-.2103623-.815348-.2103623-.630734,0-1.0777408.2709691-1.3409683.7826337-.288893.5419979-.4205067,1.1730251-.4205067,1.8656144,0,.3306802.0265001.6320423.0786135.9626628.0530002.3316953.1581139.6623158.2897276.9333446.1316138.2709691.3153931.5116646.5521205.691634.2102794.1809844.4991202.2710288.8410134.2710288s.6051207-.0900444.8410134-.2406955c.2102273-.1506512.3948413-.3913467.526455-.6623158.1307791-.2700137.2358927-.571316.3153931-.9019963.0521656-.3316356.0786657-.6926491.0786657-1.0536625"/>
      </g>
    </g>
  </g>
</svg>