<?xml version="1.0" encoding="UTF-8"?>
<svg id="Capa_2" xmlns="http://www.w3.org/2000/svg" version="1.1" viewBox="0 0 57.2280388 32.0120354">
  <!-- Generator: Adobe Illustrator 29.0.0, SVG Export Plug-In . SVG Version: 2.1.0 Build 186)  -->
  <defs>
    <style>
      .st0 {
        fill-rule: evenodd;
      }

      .st0, .st1 {
        fill: #fff;
      }

      .st2 {
        fill: #946037;
      }
    </style>
  </defs>
  <g id="Capa_1-2">
    <g>
      <g>
        <path class="st2" d="M42.5440445.9H14.6839962C7.1040406.9.9,7.103003.9,14.6840572v2.6439819c0,7.5800171,6.203003,13.7839966,13.7839962,13.7839966h27.8600483c7.5809937,0,13.7839966-6.2030029,13.7839966-13.7839966v-2.6439819c0-7.5810547-6.2050171-13.7840576-13.7839966-13.7840576"/>
        <path class="st1" d="M42.5439453,32.0128784H14.684082c-8.0966797,0-14.684082-6.5878906-14.684082-14.6845703v-2.644043C0,6.5875854,6.5874023.0001831,14.684082.0001831h27.8598633C50.640625.0001831,57.2285156,6.5875854,57.2285156,14.6842651v2.644043c0,8.0966797-6.5878906,14.6845703-14.6845703,14.6845703ZM14.684082,1.7999878C7.5795898,1.7999878,1.7998047,7.5797729,1.7998047,14.6842651v2.644043c0,7.1044922,5.7797852,12.8837891,12.8842773,12.8837891h27.8598633c7.1044922,0,12.8837891-5.7792969,12.8837891-12.8837891v-2.644043c0-7.1044922-5.7792969-12.8842773-12.8837891-12.8842773H14.684082Z"/>
      </g>
      <path class="st0" d="M19.6010494,12.4621944l3.5689697-3.5689697c-3.9320068-3.9320068-10.3449707-3.9320068-14.2769775,0s-3.9320068,10.3449707,0,14.2769775,10.3449707,3.9320068,14.2769775,0l-3.6459961-3.6459961c-1.7850342,1.7839966-4.7340088,2.4050293-7.0620117.0770264-1.9660034-1.9660034-1.9660034-5.1730347,0-7.1390381,1.9660034-1.9659424,5.1730347-1.9659424,7.1390381,0"/>
      <rect class="st1" x="24.4414425" y="14.3479977" width="8.4080219" height="3.367981"/>
      <path class="st1" d="M48.4075089,13.0503292c0,1.3839722-.2150269,2.7679443-.6150513,4.1209717-.4299927,1.3829956-1.0149536,2.6749878-1.7529907,3.9050293-.7379761,1.2299805-1.598999,2.367981-2.6140137,3.4129639-1.0139771,1.0770264-2.1209717,1.9990234-3.289978,2.7680054l-4.151001-2.1220093c.6459961-.3999634,1.3530273-.9219971,2.1220093-1.6300049.7680054-.6759644,1.5369873-1.4140015,2.2440186-2.2139893.7080078-.7990112,1.322998-1.6289673,1.8449707-2.460022.5230103-.8299561.8610229-1.6299438,1.0150146-2.3369751-.5230103.7379761-1.1380005,1.2609863-1.8140259,1.5380249-.677002.3070068-1.3529663.4609985-2.0299683.4609985-.8909912,0-1.69104-.1539917-2.3370361-.4609985-.6449585-.3080444-1.1989746-.7380371-1.598999-1.2919922-.4299927-.5230103-.7379761-1.1680298-.9219971-1.9370117-.2160034-.769043-.3079834-1.598999-.3079834-2.4910278,0-.8609619.1539917-1.690979.4619751-2.5219727.3070068-.7990112.7680054-1.5060425,1.3530273-2.1210327.5839844-.6149902,1.3530273-1.1069946,2.2440186-1.506958.8919678-.3690186,1.9069824-.5540161,3.0750122-.5540161,1.2919922,0,2.3989868.1849976,3.2909546.5849609.8920288.3990479,1.6300049.9530029,2.1830444,1.6290283.5539551.677002.9529419,1.4760132,1.2299805,2.367981.2459717.8920288.3690186,1.8450317.3690186,2.8600464M43.6105118,11.9432735c0-.3999634-.0310059-.8299561-.092041-1.2299805-.0930176-.3999634-.2149658-.7689819-.3690186-1.1069946-.1849976-.3079834-.4309692-.5540161-.7079468-.7689819-.276001-.2150269-.6450195-.3070068-1.1069946-.3070068-.3990479,0-.7680054.09198-1.0450439.276001-.2769775.2160034-.5230103.4619751-.7069702.7689819-.1849976.3380127-.3080444.7070312-.4000244,1.1069946-.09198.4000244-.1229858.8309937-.1229858,1.2609863,0,.4610596.0310059.8920288.1229858,1.3220215.0610352.4620361.184021.8309937.3690186,1.1690063.1539917.3380127.3999634.6149902.6759644.8300171.2770386.2149658.6459961.3079834,1.1070557.3079834.3389893,0,.6459961-.0930176.9229736-.3079834.2769775-.184021.4920044-.4299927.7069702-.769043.2160034-.3379517.3690186-.7069702.4920044-1.1679688.092041-.4310303.1540527-.8920288.1540527-1.3840332"/>
    </g>
  </g>
</svg>