<?xml version="1.0" encoding="UTF-8"?>
<svg id="Capa_2" xmlns="http://www.w3.org/2000/svg" version="1.1" viewBox="0 0 57.2259941 32.0110588">
  <!-- Generator: Adobe Illustrator 29.0.0, SVG Export Plug-In . SVG Version: 2.1.0 Build 186)  -->
  <defs>
    <style>
      .st0 {
        fill-rule: evenodd;
      }

      .st0, .st1 {
        fill: #fff;
      }

      .st2 {
        fill: #aa17a3;
      }
    </style>
  </defs>
  <g id="Capa_1-2">
    <g>
      <g>
        <path class="st2" d="M42.5430069.9H14.6839962C7.1039796.9.9,7.103003.9,14.6830196v2.6439819c0,7.5810547,6.203003,13.7840576,13.7839962,13.7840576h27.8590107c7.5809937,0,13.7829895-6.2030029,13.7829895-13.7840576v-2.6439819c0-7.5809937-6.20401-13.78302-13.7829895-13.78302"/>
        <path class="st1" d="M42.5429688,32.0119019H14.684082c-8.0966797,0-14.684082-6.5878906-14.684082-14.6845703v-2.6445312C0,6.5866089,6.5874023.0001831,14.684082.0001831h27.8588867C50.6396484.0001831,57.2265625,6.5866089,57.2265625,14.6828003v2.6445312c0,8.0966797-6.5869141,14.6845703-14.6835938,14.6845703ZM14.684082,1.7999878C7.5795898,1.7999878,1.7998047,7.5792847,1.7998047,14.6828003v2.6445312c0,7.1044922,5.7797852,12.8837891,12.8842773,12.8837891h27.8588867c7.1035156,0,12.8828125-5.7792969,12.8828125-12.8837891v-2.6445312c0-7.1035156-5.7792969-12.8828125-12.8828125-12.8828125H14.684082Z"/>
      </g>
      <rect class="st1" x="24.4397945" y="14.3216305" width="8.4079914" height="3.367981"/>
      <path class="st1" d="M47.7070084,20.0337276c0,2.1220093-.7070007,3.6900024-2.0910034,4.7660522-1.3840027,1.0769653-3.3830261,1.6300049-5.9349976,1.6300049-.3380127,0-.7380066-.0310059-1.1990051-.0610352-.4609985-.0310059-.9530029-.0930176-1.4450073-.1539917-.4920044-.0620117-.95401-.1539917-1.4150085-.2459717-.4609985-.092041-.8609924-.2150269-1.1679993-.3380127l.3380127-3.4750366c.7689819.3690186,1.5679932.6150513,2.3979797.7070312.8310242.1229858,1.4760132.1849976,1.9990234.1849976,1.3529968,0,2.3059998-.3079834,2.8599854-.8920288.5230103-.5839844.7990112-1.3839722.7990112-2.4289551,0-.7080078-.276001-1.2920532-.8609924-1.7530518-.5840149-.4609985-1.3220215-.7079468-2.2440186-.7079468h-3.1059875v-3.382019h3.1669922c.9530029,0,1.6300049-.2460327,2.0910034-.7689819.4609985-.4920044.677002-1.1069946.677002-1.8140259,0-.6459961-.2160034-1.1989746-.677002-1.6599731-.4609985-.4620361-1.1380005-.677002-2.0599976-.677002-.7690125,0-1.507019.0609741-2.2140198.1539917-.7070007.1229858-1.4759827.3380127-2.2449951.6449585l-.6149902-3.381958c.9230042-.2770386,1.8760071-.4920044,2.8599854-.6149902.9530029-.1230469,1.9060059-.1849976,2.82901-.1849976.9530029,0,1.8760071.0929565,2.7059937.3079834.8300171.2149658,1.5370178.5230103,2.1520081.9530029.6149902.4309692,1.1069946.9840088,1.4760132,1.6300049.3389893.677002.5229797,1.4759521.5229797,2.3980103,0,.6459961-.1229858,1.2299805-.3989868,1.7219849-.2770081.5230103-.5849915.9539795-.9850159,1.2919922-.3989868.3690186-.7989807.6459961-1.2599792.8610229-.4620056.2149658-.8919983.3689575-1.2610168.4609985.5230103.0929565,1.0450134.2769775,1.5679932.5229492.5230103.2770386.9840088.6150513,1.3840027,1.0150146.4000244.3989868.7380066.8920288.9840088,1.4450073s.3690186,1.1690063.3690186,1.8449707"/>
      <path class="st0" d="M19.600317,12.4361324l3.5689697-3.5689697c-3.9309998-3.9320068-10.3449707-3.9320068-14.2769775,0s-3.9320068,10.3449707,0,14.2769775,10.3459778,3.9320068,14.2769775,0l-3.6459961-3.6459961c-1.7850037,1.7839966-4.7339783,2.4050293-7.0619812.0770264-1.9649963-1.9660034-1.9649963-5.1730347,0-7.1390381,1.9660034-1.9659424,5.1730042-1.9659424,7.1390076,0"/>
    </g>
  </g>
</svg>