<?xml version="1.0" encoding="UTF-8"?>
<svg id="Capa_2" xmlns="http://www.w3.org/2000/svg" version="1.1" viewBox="0 0 57.2270012 32.0120354">
  <!-- Generator: Adobe Illustrator 29.0.0, SVG Export Plug-In . SVG Version: 2.1.0 Build 186)  -->
  <defs>
    <style>
      .st0 {
        fill-rule: evenodd;
      }

      .st0, .st1 {
        fill: #fff;
      }

      .st2 {
        fill: #0033a1;
      }
    </style>
  </defs>
  <g id="Capa_1-2">
    <g>
      <g>
        <path class="st2" d="M42.5430069.9H14.6829891C7.103003.9.9,7.103003.9,14.6840572v2.6439819c0,7.5800171,6.201996,13.7839966,13.7829891,13.7839966h27.8600178c7.5809937,0,13.7839966-6.2030029,13.7839966-13.7839966v-2.6439819c0-7.5810547-6.2040405-13.7840576-13.7839966-13.7840576"/>
        <path class="st1" d="M42.5429688,32.0128784H14.6831055c-8.0961914,0-14.6831055-6.5878906-14.6831055-14.6845703v-2.644043C0,6.5875854,6.5869141.0001831,14.6831055.0001831h27.8598633C50.6396484.0001831,57.2275391,6.5875854,57.2275391,14.6842651v2.644043c0,8.0966797-6.5878906,14.6845703-14.6845703,14.6845703ZM14.6831055,1.7999878C7.5791016,1.7999878,1.7998047,7.5797729,1.7998047,14.6842651v2.644043c0,7.1044922,5.7792969,12.8837891,12.8833008,12.8837891h27.8598633c7.1044922,0,12.8837891-5.7792969,12.8837891-12.8837891v-2.644043c0-7.1044922-5.7792969-12.8842773-12.8837891-12.8842773H14.6831055Z"/>
      </g>
      <path class="st0" d="M19.6000118,12.4621334l3.5689697-3.5689697c-3.9319763-3.9320068-10.3449707-3.9320068-14.2769775,0s-3.9320068,10.3449707,0,14.2769775,10.3450012,3.9320068,14.2769775,0l-3.6459961-3.6459961c-1.7850037,1.7839966-4.7339783,2.4050293-7.0619812.0770264-1.9660034-1.9660034-1.9660034-5.1730347,0-7.1390381,1.9660034-1.9659424,5.1730042-1.9659424,7.1390076,0"/>
      <path class="st1" d="M37.5261612,21.2224483v5.0130005h-3.8409424v-5.0130005h-6.7030029v-2.4900513l5.6989746-12.6699829h4.7189941v11.9310303h1.9840088v3.2290039h-1.8580322ZM33.6852188,9.5373898h-.2260132l-3.5899963,8.4560547h3.8160095v-8.4560547Z"/>
      <rect class="st1" x="21.5556087" y="14.3569088" width="5.0490112" height="3.367981"/>
      <path class="st1" d="M50.4670792,20.2973995c0,.7240601-.0709839,1.4250488-.1879883,2.1490479-.117981.723999-.3519897,1.4019775-.65802,1.9859619-.3289795.5840454-.7749634,1.0740356-1.3389893,1.447998-.5639648.3740234-1.2689819.5610352-2.1380005.5610352-.5880127,0-1.1049805-.1400146-1.5750122-.3970337-.492981-.256958-.8689575-.6539917-1.1269531-1.1919556l-.2120361,1.3789673h-3.2420044V9.5984249h3.5950317v6.4470215c.3049927-.5369873.7039795-.9570312,1.197998-1.2139893.492981-.257019,1.0339966-.3980103,1.6449585-.3980103.8690186,0,1.5500488.1640015,2.0910034.5139771.5170288.3510132.9160156.8179932,1.2220459,1.3790283.2819824.5599976.4689941,1.190979.5869751,1.8919678.0939941.7009888.1409912,1.4020386.1409912,2.0789795M46.7311172,20.2973995c0-.256958,0-.6069946-.0230103-1.0049438-.0240479-.3970337-.0939941-.7940063-.1880493-1.1680298-.117981-.3729858-.2819824-.7000122-.4939575-.9810181-.2109985-.256958-.5170288-.3969727-.9160156-.3969727-.3289795,0-.5880127.0939941-.7990112.257019-.2119751.1640015-.3529663.3739624-.4699707.6309814-.118042.257019-.2120361.5139771-.2579956.8170166-.0469971.3039551-.0710449.5609741-.0710449.8179932v2.3599854c0,.2800293.0240479.5599976.0710449.8640137.0230103.3039551.1170044.5609741.2340088.7940063.117981.256958.2589722.4439697.4699707.5839844.2119751.1640015.4699707.2340088.776001.2340088.4229736,0,.7520142-.1640015.9869995-.467041.2109985-.3039551.3759766-.6539917.492981-1.052002.0939941-.3969727.1409912-.8169556.1650391-1.2609863.0230103-.4209595.0230103-.7709961.0230103-1.0280151"/>
    </g>
  </g>
</svg>