<?xml version="1.0" encoding="UTF-8"?>
<svg id="Capa_2" xmlns="http://www.w3.org/2000/svg" version="1.1" viewBox="0 0 57.2270012 32.0120354">
  <!-- Generator: Adobe Illustrator 29.0.0, SVG Export Plug-In . SVG Version: 2.1.0 Build 186)  -->
  <defs>
    <style>
      .st0 {
        fill-rule: evenodd;
      }

      .st0, .st1 {
        fill: #fff;
      }

      .st2 {
        fill: #0033a1;
      }
    </style>
  </defs>
  <g id="Capa_1-2">
    <g>
      <g>
        <path class="st2" d="M42.5430069.9H14.6829891C7.103003.9.9,7.103003.9,14.6840572v2.6439819c0,7.5800171,6.201996,13.7839966,13.7829891,13.7839966h27.8600178c7.5809937,0,13.7839966-6.2030029,13.7839966-13.7839966v-2.6439819c0-7.5810547-6.20401-13.7840576-13.7839966-13.7840576"/>
        <path class="st1" d="M42.5429688,32.0128784H14.6831055c-8.0961914,0-14.6831055-6.5878906-14.6831055-14.6845703v-2.644043C0,6.5875854,6.5869141.0001831,14.6831055.0001831h27.8598633C50.6396484.0001831,57.2275391,6.5875854,57.2275391,14.6842651v2.644043c0,8.0966797-6.5878906,14.6845703-14.6845703,14.6845703ZM14.6831055,1.7999878C7.5791016,1.7999878,1.7998047,7.5797729,1.7998047,14.6842651v2.644043c0,7.1044922,5.7792969,12.8837891,12.8833008,12.8837891h27.8598633c7.1044922,0,12.8837891-5.7792969,12.8837891-12.8837891v-2.644043c0-7.1044922-5.7792969-12.8842773-12.8837891-12.8842773H14.6831055Z"/>
      </g>
      <path class="st0" d="M19.5999813,12.3266964l3.5689697-3.5689697c-3.9319763-3.9320068-10.3449707-3.9320068-14.2769775,0s-3.9320068,10.3449707,0,14.2769775,10.3450012,3.9320068,14.2769775,0l-3.6459961-3.6459961c-1.7850037,1.7839966-4.7339783,2.4050293-7.0619812.0770264-1.9660034-1.9660034-1.9660034-5.1730347,0-7.1390381,1.9660034-1.9659424,5.1730042-1.9659424,7.1390076,0"/>
      <path class="st1" d="M37.4631729,21.0853634v5.0130005h-3.8409729v-5.0130005h-6.7030029v-2.4910278l5.6989746-12.6690063h4.7190247v11.9310303h1.9839783v3.2290039h-1.8580017ZM33.6222,9.4003048h-.2260132l-3.5899963,8.4560547h3.8160095v-8.4560547Z"/>
      <rect class="st1" x="21.491766" y="14.2199459" width="5.0490112" height="3.3690186"/>
      <path class="st1" d="M46.7229996,25.9341793l-.230011-1.7320557c-.3829956.5670166-.7909851,1.0450439-1.223999,1.4330444-.4339905.3889771-1.04599.5679932-1.8370056.5679932-1.2250061,0-2.1690063-.3880005-2.8320007-1.1650391-.6629944-.7769775-.9949951-1.8519897-.9949951-3.1959839,0-1.4639893.4339905-2.6279907,1.276001-3.4949951.8420105-.8659668,2.0660095-1.2839966,3.6220093-1.2839966.5099792,0,.8930054.0300293,1.1229858.0599976.2290039.059021.4840088.1190186.7140198.1489868v-1.7030029c0-.5669556-.1790161-1.0149536-.5100098-1.3139648-.3320007-.269043-.8170166-.4180298-1.4290161-.4180298-1.04599,0-2.065979.269043-3.0869751.7770386l-.5610046-2.8980103c.6629944-.3280029,1.4289856-.5670166,2.2709961-.6870117.8410034-.1190186,1.6319885-.1790161,2.3720093-.1790161,1.6069946,0,2.7809753.3590088,3.571991,1.1050415.7900085.7469482,1.1730042,1.7630005,1.1730042,3.0769653v8.1240234c0,.447998.026001.9259644.0769958,1.3739624.0509949.4780273.1019897.9559937.1529846,1.4040527h-3.6479797ZM46.340004,19.5721188c-.1280212-.0599976-.3060303-.1199951-.4850159-.1489868-.178009-.0299683-.4079895-.0599976-.6629944-.0599976-.3059998,0-.5610046.0599976-.7650146.1790161-.2299805.1489868-.3829956.2990112-.5109863.5079956-.1270142.2089844-.2290039.447998-.2799988.71698-.0509949.269043-.0769958.5370483-.0769958.8060303,0,.5079956.1019897.9259644.3059998,1.2550049.1789856.3280029.5109863.5079956.9440002.5079956.4849854,0,.867981-.1799927,1.1479797-.5380249.2550049-.3289795.3830261-.7470093.3830261-1.2249756v-2.0010376Z"/>
    </g>
  </g>
</svg>