<?xml version="1.0" encoding="UTF-8"?>
<svg id="Capa_2" xmlns="http://www.w3.org/2000/svg" version="1.1" viewBox="0 0 57.2270012 32.0120354">
  <!-- Generator: Adobe Illustrator 29.0.0, SVG Export Plug-In . SVG Version: 2.1.0 Build 186)  -->
  <defs>
    <style>
      .st0 {
        fill-rule: evenodd;
      }

      .st0, .st1 {
        fill: #fff;
      }

      .st2 {
        fill: #e95ebe;
      }
    </style>
  </defs>
  <g id="Capa_1-2">
    <g>
      <g>
        <path class="st2" d="M42.5430069.9H14.6829586C7.103003.9.9,7.103003.9,14.6840572v2.6439819c0,7.5800171,6.2019655,13.7839966,13.7829586,13.7839966h27.8600483c7.5809937,0,13.7839966-6.2030029,13.7839966-13.7839966v-2.6439819c0-7.5810547-6.2040405-13.7840576-13.7839966-13.7840576"/>
        <path class="st1" d="M42.5429688,32.0128784H14.6831055c-8.0961914,0-14.6831055-6.5878906-14.6831055-14.6845703v-2.644043C0,6.5875854,6.5869141.0001831,14.6831055.0001831h27.8598633C50.6396484.0001831,57.2275391,6.5875854,57.2275391,14.6842651v2.644043c0,8.0966797-6.5878906,14.6845703-14.6845703,14.6845703ZM14.6831055,1.7999878C7.5791016,1.7999878,1.7998047,7.5797729,1.7998047,14.6842651v2.644043c0,7.1044922,5.7792969,12.8837891,12.8833008,12.8837891h27.8598633c7.1044922,0,12.8837891-5.7792969,12.8837891-12.8837891v-2.644043c0-7.1044922-5.7792969-12.8842773-12.8837891-12.8842773H14.6831055Z"/>
      </g>
      <path class="st0" d="M19.6000118,12.4363155l3.5689697-3.5689697c-3.9320068-3.9320068-10.3449707-3.9320068-14.2769775,0s-3.9320068,10.3449707,0,14.2769775,10.3449707,3.9320068,14.2769775,0l-3.6459961-3.6459961c-1.7850342,1.7839966-4.7340088,2.4050293-7.0620117.0770264-1.9660034-1.9660034-1.9660034-5.1730347,0-7.1390381,1.9660034-1.9659424,5.1730347-1.9659424,7.1390381,0"/>
      <rect class="st1" x="24.4400997" y="14.3219357" width="8.4080219" height="3.367981"/>
      <path class="st1" d="M48.4403458,20.1881466c0,.8300171-.1539917,1.6300049-.4309692,2.4290161-.2770386.7999878-.7070312,1.507019-1.2910156,2.1220093-.585022.6459961-1.322998,1.1380005-2.2139893,1.506958-.8920288.3990479-1.9689941.5840454-3.1989746.5840454-1.2910156,0-2.3980103-.1849976-3.2900391-.6149902-.8919678-.4000244-1.6300049-.9230347-2.1829834-1.598999-.5540161-.677002-.9530029-1.4760132-1.1990356-2.368042-.2769775-.8919678-.3999634-1.8449707-.3999634-2.8599854,0-1.3839722.2149658-2.7670288.6459961-4.151001.4299927-1.3839722,1.0139771-2.6749878,1.78302-3.9359741.7689819-1.2300415,1.6609497-2.368042,2.6749878-3.4440308,1.0150146-1.0460205,2.1220093-1.9379883,3.3209839-2.6760254l3.9979858,2.1220093c-.6459961.4000244-1.3529663.9230347-2.1220093,1.598999-.7679443.7070312-1.506958,1.4460449-2.2139893,2.2449951-.7069702.8000488-1.3529663,1.6300049-1.8759766,2.460022-.5220337.8300171-.8610229,1.6300049-1.0139771,2.3369751.5219727-.7379761,1.1369629-1.2609863,1.8139648-1.5679932.6760254-.2769775,1.3530273-.4309692,2.0300293-.4309692.8909912,0,1.690979.1539917,2.3369751.4619751.6450195.3070068,1.1680298.7380371,1.598999,1.2910156.3989868.5540161.7070312,1.1989746.9219971,1.9680176.2150269.7689819.3079834,1.6300049.3079834,2.5219727M43.581398,20.2801266c0-.4609985-.0310059-.8919678-.092041-1.2919922-.0930176-.3989868-.2149658-.7680054-.3690186-1.1069946-.1849976-.3070068-.4309692-.5529785-.7079468-.7379761-.276001-.184021-.6450195-.276001-1.1069946-.276001-.6450195,0-1.1990356.3070068-1.6290283.9530029-.4310303.6459961-.6459961,1.4450073-.6459961,2.4599609,0,.4000244.0310059.8300171.1229858,1.2610474.0610352.4299927.184021.8299561.3690186,1.1679688.1539917.3389893.3999634.6459961.6759644.8610229.2770386.2160034.6459961.3389893,1.1070557.3389893.4619751,0,.8309937-.0930176,1.1380005-.3079834.2769775-.184021.5229492-.4609985.6769409-.7990112.1540527-.3389893.276001-.7080078.3690186-1.1690063.0610352-.4299927.092041-.8919678.092041-1.3530273"/>
    </g>
  </g>
</svg>